# xmcd
#
# Track frame offsets: 
#        150
#        22627
#        39905
#        65536
#        81234
#        96075
#        118336
#        141169
#        161147
#        189614
#        209865
#        227980
#        243828
#        265711
#        277721
#        295462
#
# Disc length: 4441 seconds
#
# Revision: 3
# Processed by: cddbd v1.5.2PL0 Copyright (c) Steve Scherf et al.
# Submitted via: ExactAudioCopyFreeDBPlugin 1.0
#
DISCID=e7115710
DTITLE=Various Artist - Bugged Out Presents Suck My Deck - Damian Lazarus
DYEAR=2005
DGENRE=Techno, Deep House, Tech House, Minimal
TTITLE0=Break 3000 - Flash 1
TTITLE1=System 7 - Planet 7 (James Holden Remix)
TTITLE2=Thomas Dolby - One Of Our Submarines (Ricardo Villalobos Remix
TTITLE2=)
TTITLE3=Pier Bucci feat. Raz Ohara - Polaris
TTITLE4=Switch - Get Downz (Max Fresh Remix)
TTITLE5=Phonique feat. Alexander East - 99 and A Half (I-Cube Remix)
TTITLE6=Issakidis - Into Your Life (Midnight Mike Remix)
TTITLE7=Freaks - Tweekness (Extended Disco 12")
TTITLE8=Rayon - The Panther
TTITLE9=Trentemoller - Physical Fraction
TTITLE10=Matt Tolfrey and Craig Sylvester - The Horn
TTITLE11=Audioperu - Viviendas Paraiso
TTITLE12=Alter Ego - Beat The Bush (Ewan Pearson Slow NRG Edit)
TTITLE13=James Holden - Lump
TTITLE14=The Stranglers - Love 30
TTITLE15=M83 feat. Anthony Gonzalez - Dont Save Us From The Flames (Su
TTITLE15=perpitcher Remix)
EXTD=
EXTT0=
EXTT1=
EXTT2=
EXTT3=
EXTT4=
EXTT5=
EXTT6=
EXTT7=
EXTT8=
EXTT9=
EXTT10=
EXTT11=
EXTT12=
EXTT13=
EXTT14=
EXTT15=
PLAYORDER=
